<?xml version="1.0" standalone="no"?>
<!DOCTYPE svg PUBLIC "-//W3C//DTD SVG 20010904//EN"
 "http://www.w3.org/TR/2001/REC-SVG-20010904/DTD/svg10.dtd">
<svg version="1.0" xmlns="http://www.w3.org/2000/svg"
 width="512.000000pt" height="512.000000pt" viewBox="0 0 512.000000 512.000000"
 preserveAspectRatio="xMidYMid meet">
<metadata>
Created by potrace 1.14, written by Peter Selinger 2001-2017
</metadata>
<g transform="translate(0.000000,512.000000) scale(0.100000,-0.100000)"
fill="#000000" stroke="none">
<path d="M2340 5108 c-491 -44 -945 -222 -1343 -525 -120 -92 -336 -303 -431
-423 -290 -364 -476 -797 -542 -1265 -18 -129 -24 -429 -12 -575 34 -394 177
-810 394 -1147 139 -216 362 -464 554 -617 367 -293 807 -481 1266 -541 150
-20 545 -19 689 1 427 59 837 226 1174 479 132 99 169 132 301 265 366 368
608 836 701 1355 21 116 24 160 24 420 0 160 -4 319 -8 355 -14 116 -57 308
-98 435 -130 408 -332 739 -634 1040 -398 399 -884 644 -1440 726 -157 23
-440 31 -595 17z m461 -168 c649 -65 1226 -380 1640 -895 249 -310 412 -673
486 -1085 23 -130 26 -172 27 -395 1 -277 -10 -376 -65 -598 -215 -856 -899
-1533 -1760 -1742 -199 -48 -307 -59 -564 -59 -269 0 -377 12 -600 69 -892
228 -1587 970 -1754 1874 -60 319 -54 660 15 971 152 679 595 1258 1219 1595
231 125 542 223 800 254 50 6 101 13 115 15 57 8 345 5 441 -4z"/>
<path d="M2343 4680 c-182 -19 -417 -79 -591 -151 -806 -335 -1332 -1128
-1321 -1994 7 -577 236 -1109 650 -1512 715 -695 1816 -801 2649 -255 136 90
213 152 333 270 326 321 531 717 613 1187 25 140 26 498 2 645 -124 769 -627
1396 -1344 1676 -297 116 -667 166 -991 134z m137 -375 l0 -215 85 0 85 0 0
216 0 217 84 -7 c162 -13 338 -52 499 -110 119 -43 237 -97 237 -108 0 -5 -27
-56 -61 -114 -33 -58 -58 -108 -56 -111 3 -3 35 -22 71 -43 l66 -39 39 67 c21
37 49 86 62 109 13 24 28 43 32 43 15 0 125 -79 221 -160 53 -44 134 -124 181
-176 82 -93 195 -243 195 -261 0 -4 -19 -19 -43 -32 -23 -13 -72 -41 -109 -62
l-67 -39 39 -66 c21 -36 40 -68 43 -71 3 -2 53 23 111 56 58 34 109 61 114 61
22 0 126 -268 166 -427 27 -109 56 -288 56 -352 l0 -41 -215 0 -215 0 0 -85 0
-85 215 0 215 0 0 -35 c0 -61 -31 -257 -56 -358 -39 -157 -144 -427 -166 -427
-4 0 -56 27 -114 60 -59 34 -109 59 -111 56 -3 -2 -22 -34 -43 -70 l-39 -66
67 -39 c37 -21 86 -49 109 -62 24 -13 43 -28 43 -32 0 -29 -153 -221 -264
-332 -113 -112 -305 -265 -333 -265 -4 0 -19 19 -32 43 -13 23 -41 72 -62 109
l-39 67 -66 -39 c-36 -21 -68 -41 -71 -44 -3 -3 22 -52 56 -110 33 -57 61
-109 61 -114 0 -11 -158 -82 -263 -118 -152 -52 -320 -88 -471 -100 l-86 -7 0
217 0 216 -85 0 -85 0 0 -216 0 -217 -87 7 c-114 8 -308 48 -431 87 -116 38
-302 118 -302 131 0 5 28 57 61 114 34 58 59 107 56 110 -3 3 -35 23 -71 44
l-66 39 -39 -67 c-21 -37 -49 -86 -62 -109 -13 -24 -28 -43 -32 -43 -28 0
-221 153 -332 265 -113 112 -266 304 -265 332 0 4 48 35 105 68 58 32 105 63
105 68 0 11 -70 137 -76 137 -3 0 -52 -27 -109 -60 -57 -33 -108 -60 -113 -60
-12 0 -86 168 -124 280 -48 143 -82 308 -94 456 l-7 84 217 0 216 0 0 85 0 85
-216 0 -217 0 7 88 c9 114 48 308 87 430 38 117 118 302 131 302 5 0 56 -27
114 -61 58 -33 108 -58 111 -56 3 3 22 35 43 71 l39 66 -95 55 c-51 31 -101
58 -109 61 -23 9 -19 20 35 98 111 160 298 346 471 469 72 51 84 55 93 32 3
-8 30 -58 61 -109 l55 -95 66 39 c36 21 68 40 71 43 2 3 -23 53 -56 111 -34
58 -61 109 -61 114 0 11 119 65 237 108 170 62 398 110 531 113 l52 1 0 -215z"/>
<path d="M2480 3359 l0 -567 -29 -12 c-39 -16 -88 -65 -114 -114 -30 -57 -30
-165 0 -221 49 -92 127 -139 228 -140 58 0 78 5 118 27 41 23 53 26 70 16 12
-6 233 -132 490 -281 257 -148 469 -268 471 -266 14 21 76 132 76 137 0 4
-218 132 -484 285 l-483 279 -5 62 c-8 96 -66 186 -138 216 l-30 12 0 568 0
568 -85 -1 -85 -1 0 -567z m145 -744 c54 -53 16 -145 -60 -145 -25 0 -44 8
-60 25 -17 16 -25 35 -25 60 0 76 92 114 145 60z"/>
</g>
</svg>
